<?xml version="1.0" encoding="UTF-8"?>
<svg version="1.1" xmlns="http://www.w3.org/2000/svg" width="2100" height="2100">
<path d="M0 0 C4.25919972 0.60442161 8.52343712 1.17097096 12.78775024 1.73800659 C13.6414772 1.85209366 14.49520416 1.96618073 15.37480164 2.08372498 C23.23844983 3.11997008 31.11055334 3.89165868 39.01040649 4.59738159 C49.73492875 5.56290471 60.33009859 6.92752518 70.9725647 8.55465698 C81.89755021 10.16613658 92.85558677 11.07107899 103.86880493 11.82003784 C124.15942646 13.27656851 143.29975493 17.91933662 162.63540649 24.09738159 C163.68595215 24.42946625 164.7364978 24.7615509 165.81887817 25.10369873 C181.66357441 30.12644156 196.93328259 35.59006964 211.82290649 43.03488159 C213.48144653 43.85255005 213.48144653 43.85255005 215.17349243 44.68673706 C221.12820827 47.62475747 227.06299988 50.59779057 232.98306274 53.60519409 C238.41112806 56.35107529 243.88950169 58.96174542 249.40664673 61.5229187 C258.22103253 65.62705162 266.37160473 69.68747639 273.82290649 76.03488159 C274.95828638 76.98284231 276.09370596 77.93075549 277.22915649 78.87863159 C282.47607492 83.29987489 287.59403935 87.81309881 292.57290649 92.53488159 C297.53307161 97.0419158 302.99775642 100.58696566 308.58877563 104.24630737 C324.0703213 114.403933 338.77778867 125.3202181 351.51846313 138.83322144 C355.56740819 143.08041455 359.62257061 145.98602316 364.76040649 148.78488159 C383.51861077 159.4477413 400.58915027 172.62521309 416.84463501 186.77243042 C420.6004655 190.02871964 424.43587706 193.14167191 428.38540649 196.15988159 C428.92254272 196.57149536 429.45967896 196.98310913 430.01309204 197.40719604 C432.60227237 199.38003506 435.21241012 201.31410105 437.85806274 203.21066284 C449.94259423 212.05635656 460.73486488 222.85634416 470.45181274 234.23410034 C473.64919085 237.94099136 477.12281283 241.10147057 480.88540649 244.22238159 C481.76422485 244.96391479 481.76422485 244.96391479 482.66079712 245.72042847 C485.36903599 248.00184168 488.08723345 250.24080681 490.88150024 252.41769409 C494.39661159 255.54534961 497.04037189 258.94825916 499.82290649 262.72238159 C500.96525333 264.2451793 502.10851364 265.7672921 503.25259399 267.28878784 C503.83879517 268.07140991 504.42499634 268.85403198 505.02896118 269.66036987 C507.37601581 272.76699117 509.77259151 275.83305744 512.17471313 278.89718628 C515.07406072 282.59691826 517.95044539 286.31425616 520.82290649 290.03488159 C521.61737183 291.06089478 521.61737183 291.06089478 522.42788696 292.1076355 C523.92630343 294.05335457 525.40825749 296.01048738 526.88540649 297.97238159 C527.52856812 298.80310181 527.52856812 298.80310181 528.1847229 299.65060425 C534.43468972 308.05385873 537.63532093 317.95056863 540.55337524 327.89425659 C541.24517111 330.19611033 541.93842366 332.49752667 542.63296509 334.79855347 C543.16878204 336.57975586 543.16878204 336.57975586 543.71542358 338.39694214 C545.56329614 344.46696672 547.50105459 350.5078504 549.43618774 356.55050659 C550.21698866 358.99966097 550.997587 361.44887993 551.77798462 363.89816284 C552.9640118 367.6177848 554.15204911 371.33671307 555.34561157 375.05392456 C556.52772695 378.73837163 557.70137104 382.42543188 558.87368774 386.11300659 C559.22683548 387.2059906 559.57998322 388.29897461 559.9438324 389.42507935 C563.68714368 401.251 566.04820437 412.77561876 566.63540649 425.15988159 C567.26829743 435.08087472 569.1226387 443.7742868 572.26040649 453.17160034 C573.89640902 458.08257169 575.02630433 463.04602992 576.13540649 468.09738159 C579.9219717 484.75920501 585.91113777 500.79512163 591.71841431 516.83810425 C604.53351686 552.2660994 608.85144509 581.55658734 604.19790649 619.09738159 C604.06385406 620.20719391 603.92980164 621.31700623 603.79168701 622.46044922 C602.18466521 635.70608565 600.43387346 648.8957178 597.76040649 661.97238159 C597.53981567 663.05720825 597.31922485 664.14203491 597.09194946 665.25973511 C594.97014958 674.79563154 591.60378575 683.95011092 586.13540649 692.09738159 C585.55403931 692.97523315 584.97267212 693.85308472 584.37368774 694.75753784 C583.86192993 695.50906128 583.35017212 696.26058472 582.82290649 697.03488159 C582.16290649 698.02488159 581.50290649 699.01488159 580.82290649 700.03488159 C581.41598405 702.68538799 582.11528929 705.14690124 582.94790649 707.72238159 C587.84086575 724.09750775 590.72880549 740.9234561 589.82290649 758.03488159 C590.43239136 758.07734009 591.04187622 758.11979858 591.66983032 758.1635437 C613.26209156 759.9534149 631.72715646 768.78304552 646.82290649 784.03488159 C647.56153931 784.77222534 648.30017212 785.50956909 649.06118774 786.26925659 C650.3724199 787.58303483 651.68114247 788.89932406 652.98696899 790.21847534 C661.07222917 798.21772211 670.28095538 805.13593198 679.37368774 811.94503784 C708.1826709 833.59015307 721.33569463 870.21416381 726.54605103 904.84640503 C729.60571719 929.03233753 720.07608125 953.15511947 706.82290649 973.03488159 C707.70204712 973.2888269 708.58118774 973.54277222 709.48696899 973.80441284 C714.98501833 975.83238186 719.22899165 979.46475348 723.82290649 983.03488159 C724.53962524 983.57113159 725.25634399 984.10738159 725.99478149 984.65988159 C744.15857455 999.19091604 749.18551684 1022.78716437 752.32290649 1044.59738159 C752.74005717 1047.41450411 753.16347331 1050.2306611 753.58853149 1053.04660034 C753.69187805 1053.73510071 753.79522461 1054.42360107 753.90170288 1055.13296509 C754.80662441 1061.09061768 755.92198927 1066.99606921 757.07290649 1072.90988159 C762.2702554 1100.55102218 759.23764782 1125.07127007 743.82290649 1149.03488159 C740.12761763 1154.39370797 736.11028995 1159.46705245 731.98696899 1164.49972534 C719.67119723 1179.62034405 715.57712236 1195.54522196 711.99942017 1214.47848511 C706.80208103 1241.93655471 695.28125332 1262.15062308 676.28775024 1282.38253784 C674.32741782 1284.49199223 672.46235966 1286.62434101 670.63540649 1288.84738159 C668.07018609 1291.87637065 665.22542876 1294.40385227 662.20181274 1296.96847534 C659.85720895 1299.0050852 657.5939256 1301.11494345 655.33511353 1303.24581909 C638.23433806 1319.32146605 617.00404043 1337.18662303 592.82290649 1340.03488159 C593.19802368 1340.88566284 593.57314087 1341.73644409 593.95962524 1342.61300659 C609.04742684 1378.33727234 611.41522679 1425.05179162 598.63540649 1461.84738159 C593.8478292 1473.3404084 586.52787929 1480.5612128 576.82290649 1488.03488159 C575.60892195 1489.03875988 574.39952037 1490.04819806 573.19400024 1491.06222534 C563.53947891 1499.15555895 553.4922829 1506.3398963 542.82290649 1513.03488159 C542.18482056 1513.44190308 541.54673462 1513.84892456 540.88931274 1514.26828003 C513.86825367 1531.30640026 480.99832863 1539.0525787 449.82290649 1544.03488159 C449.04415161 1544.16765503 448.26539673 1544.30042847 447.46304321 1544.43722534 C406.20868549 1551.32746759 357.77251911 1546.08427408 318.82290649 1532.03488159 C319.16064087 1532.85730347 319.49837524 1533.67972534 319.84634399 1534.52706909 C320.29235962 1535.64339722 320.73837524 1536.75972534 321.19790649 1537.90988159 C321.85919556 1539.5457019 321.85919556 1539.5457019 322.53384399 1541.21456909 C326.03052563 1551.02220761 326.04911947 1560.67758378 325.88540649 1570.97238159 C325.85769378 1573.08553634 325.83304019 1575.19862123 325.81422424 1577.31187439 C325.79651249 1579.21042126 325.76909087 1581.10887027 325.74111938 1583.0072937 C325.6775128 1586.08285735 325.6775128 1586.08285735 326.82290649 1589.03488159 C326.74897517 1604.7822537 326.74897517 1604.7822537 322.82290649 1611.03488159 C320.63540649 1612.47238159 320.63540649 1612.47238159 318.82290649 1613.03488159 C312.52479737 1607.0772108 310.38595458 1602.30303834 308.88540649 1593.97238159 C308.7177478 1593.09694702 308.55008911 1592.22151245 308.37734985 1591.31954956 C307.67959748 1587.67352479 307.00421837 1584.02357523 306.33462524 1580.37228394 C303.06614185 1562.63810422 299.52821838 1547.25074748 286.01040649 1534.34738159 C265.20567145 1514.04700376 256.52606308 1483.87756857 251.82290649 1456.03488159 C251.59603149 1454.76644409 251.36915649 1453.49800659 251.13540649 1452.19113159 C248.82400744 1436.65339351 249.6485329 1420.7003367 249.82290649 1405.03488159 C249.16290649 1405.36488159 248.50290649 1405.69488159 247.82290649 1406.03488159 C245.20181842 1406.32667939 242.59493924 1406.56690091 239.96670532 1406.771698 C238.74094756 1406.87230624 238.74094756 1406.87230624 237.49042702 1406.97494698 C235.70080271 1407.1214271 233.91102577 1407.26605125 232.12112236 1407.40908051 C229.24004043 1407.63963684 226.35944459 1407.87556255 223.47892761 1408.11306763 C219.35002315 1408.45339764 215.22100565 1408.79229653 211.09188843 1409.1300354 C177.64238222 1411.87086546 144.24714454 1414.79943889 110.91983032 1418.77560425 C88.85910306 1421.39509778 66.80663818 1423.44213016 44.57290649 1423.15988159 C43.11067346 1423.14977023 41.64843318 1423.14065962 40.18618774 1423.13253784 C36.73159977 1423.1113082 33.27730796 1423.07729491 29.82290649 1423.03488159 C33.02081544 1429.2901853 35.96860805 1434.85495927 41.07290649 1439.72238159 C41.7827771 1440.40397339 41.7827771 1440.40397339 42.50698853 1441.09933472 C46.2130524 1444.60396864 50.11816303 1447.81679641 54.15493774 1450.92941284 C56.73896265 1452.96863601 59.21560328 1455.09337907 61.69570923 1457.25582886 C75.18315268 1468.9620957 86.96713881 1472.03362454 104.52212524 1472.28097534 C106.16080216 1472.3139287 107.79947391 1472.34714008 109.43814087 1472.38058472 C111.96731918 1472.42768801 114.49647883 1472.47216395 117.02578735 1472.51168823 C143.92418964 1472.95066343 162.48121614 1478.50087329 181.82290649 1498.03488159 C194.00613228 1511.21222476 203.02723619 1528.03055027 203.01040649 1546.17160034 C203.00960083 1547.09019333 203.00879517 1548.00878632 203.00796509 1548.95521545 C202.90843712 1560.62956524 201.84993517 1572.22524246 200.82290649 1583.84738159 C200.6293887 1586.11228653 200.43667621 1588.37726043 200.24478149 1590.64230347 C199.78006231 1596.10732244 199.30556865 1601.57141955 198.82290649 1607.03488159 C197.83290649 1606.70488159 196.84290649 1606.37488159 195.82290649 1606.03488159 C194.93496704 1604.0866394 194.93496704 1604.0866394 194.20962524 1601.48800659 C193.9341687 1600.51170288 193.65871216 1599.53539917 193.37490845 1598.5295105 C193.0896228 1597.45878296 192.80433716 1596.38805542 192.51040649 1595.28488159 C192.20771851 1594.18192749 191.90503052 1593.07897339 191.59317017 1591.94259644 C188.9516523 1582.06537651 186.85132682 1572.09204359 184.95254517 1562.0475769 C181.3216105 1543.29587511 174.59655801 1530.31078155 158.91275024 1518.92160034 C150.57619712 1513.38301003 143.93437636 1511.75036619 134.07681274 1511.72628784 C132.16730485 1511.70110021 130.25779971 1511.67570265 128.34829712 1511.65011597 C125.38028882 1511.6216032 122.41232906 1511.59755367 119.44424438 1511.57858276 C90.87343454 1511.36092318 68.64491752 1505.81976834 47.84243774 1485.05831909 C35.52006356 1471.89751533 22.94518142 1454.36958601 17.82290649 1437.03488159 C17.6449353 1436.44521606 17.46696411 1435.85555054 17.28359985 1435.24801636 C16.72164477 1432.5484282 16.72760432 1430.0402639 16.76040649 1427.28488159 C16.76942993 1426.30003784 16.77845337 1425.31519409 16.78775024 1424.30050659 C16.80515259 1423.17902222 16.80515259 1423.17902222 16.82290649 1422.03488159 C14.92798462 1421.97880737 14.92798462 1421.97880737 12.99478149 1421.92160034 C-22.11811338 1420.70460228 -60.08334406 1418.55885294 -88.17709351 1395.03488159 C-88.84353882 1394.50249878 -89.50998413 1393.97011597 -90.19662476 1393.42160034 C-96.01194624 1388.61564432 -100.59729773 1383.00552139 -105.17709351 1377.03488159 C-105.92474976 1376.06421753 -106.67240601 1375.09355347 -107.44271851 1374.09347534 C-115.20295722 1363.62229231 -121.74497546 1352.40155268 -128.33285522 1341.16964722 C-130.04738469 1338.25535567 -131.78337464 1335.35505487 -133.52474976 1332.45675659 C-145.16978818 1312.88194985 -151.58294822 1293.1507988 -157.14193726 1271.11642456 C-158.22371467 1266.83430253 -159.33949152 1262.56134753 -160.45834351 1258.28878784 C-161.19865422 1255.45434194 -161.9380456 1252.619657 -162.67709351 1249.78488159 C-162.85498413 1249.10332001 -163.03287476 1248.42175842 -163.21615601 1247.71954346 C-163.71619404 1245.7993006 -164.21236412 1243.87805176 -164.70834351 1241.95675659 C-164.99258179 1240.85944214 -165.27682007 1239.76212769 -165.56967163 1238.63156128 C-166.17709351 1236.03488159 -166.17709351 1236.03488159 -166.17709351 1234.03488159 C-167.36818726 1234.52408081 -167.36818726 1234.52408081 -168.58334351 1235.02316284 C-173.063175 1236.2843328 -177.0500763 1236.28988617 -181.67709351 1236.22238159 C-182.627052 1236.21593628 -183.5770105 1236.20949097 -184.55575562 1236.20285034 C-192.62168279 1236.12034106 -200.67911723 1235.82877759 -208.73959351 1235.53488159 C-241.29184617 1234.35014475 -274.37786639 1233.70226387 -306.39193726 1240.57003784 C-313.493383 1242.01561563 -320.46347978 1242.66172099 -327.69586182 1243.00115967 C-329.81600857 1243.10097933 -331.93503525 1243.21483271 -334.05429077 1243.33200073 C-336.99378734 1243.49388924 -339.9334531 1243.6515655 -342.87338257 1243.8053894 C-360.04491616 1244.71189224 -377.16351649 1245.83209456 -394.22958374 1247.98190308 C-454.32972473 1255.51371069 -497.66363091 1242.16126869 -546.76229858 1207.22164917 C-551.78159134 1203.65955433 -556.87909774 1200.27704886 -562.08187866 1196.98922729 C-570.98659996 1191.35571359 -578.80712896 1185.59172321 -586.17709351 1178.03488159 C-587.25797241 1176.98494019 -587.25797241 1176.98494019 -588.36068726 1175.91378784 C-604.66328152 1159.1027306 -611.02200868 1134.93712347 -611.55209351 1112.09738159 C-611.41214452 1106.01872802 -610.82267198 1100.05650221 -609.98959351 1094.03488159 C-609.8888855 1093.27699341 -609.78817749 1092.51910522 -609.68441772 1091.73825073 C-607.52494465 1077.87896764 -602.14679282 1064.9675006 -596.40341187 1052.27096558 C-595.36578692 1049.97502225 -594.3437422 1047.67261272 -593.32357788 1045.36886597 C-587.4134221 1032.11593667 -581.14341453 1019.27051505 -572.54818726 1007.52316284 C-571.00631176 1005.21683325 -571.00631176 1005.21683325 -571.22006226 1003.03878784 C-572.52428292 1000.30790947 -574.21432317 998.06311972 -576.05209351 995.65988159 C-583.17709351 986.32639451 -583.17709351 986.32639451 -583.17709351 982.03488159 C-583.88994507 982.16765503 -584.60279663 982.30042847 -585.33724976 982.43722534 C-586.29502319 982.6138269 -587.25279663 982.79042847 -588.23959351 982.97238159 C-589.17932007 983.14640503 -590.11904663 983.32042847 -591.08724976 983.49972534 C-592.10689819 983.6763269 -593.12654663 983.85292847 -594.17709351 984.03488159 C-595.70656616 984.30751831 -595.70656616 984.30751831 -597.26693726 984.58566284 C-615.59263047 986.69101221 -634.28711591 984.78986058 -652.53256226 982.82394409 C-659.86318824 982.03722462 -667.19624795 981.51700241 -674.55209351 981.03488159 C-708.94057276 978.62962416 -740.54605322 967.9150798 -765.17709351 943.03488159 C-765.80099976 942.4328894 -766.42490601 941.83089722 -767.06771851 941.21066284 C-774.76606563 933.16791598 -779.86802154 921.07717991 -780.17709351 910.03488159 C-779.54518109 896.52399226 -775.61056334 887.64395586 -765.82943726 878.39425659 C-761.73866799 874.7553396 -757.52926426 871.35533884 -753.17709351 868.03488159 C-751.99173448 867.09796732 -750.80687255 866.16042391 -749.62240601 865.22238159 C-739.99965914 857.69412599 -730.02058672 851.63263266 -719.17709351 846.03488159 C-718.22576538 845.53875366 -717.27443726 845.04262573 -716.29428101 844.53146362 C-690.73260528 831.25622634 -664.46787231 820.22683619 -637.17709351 811.03488159 C-635.67154907 810.51837036 -635.67154907 810.51837036 -634.1355896 809.99142456 C-618.30793171 804.60774123 -602.54787962 801.9059 -586.00469971 799.75204468 C-573.68248235 798.1299347 -561.75466136 795.73435468 -549.75546265 792.49337769 C-547.08943531 791.77813212 -544.4163058 791.0955558 -541.74154663 790.41378784 C-533.01239415 788.12039656 -525.54657137 785.82116329 -518.17538452 780.4616394 C-516.17709351 779.03488159 -516.17709351 779.03488159 -513.17709351 778.03488159 C-512.30462714 775.99573 -512.30462714 775.99573 -511.78256226 773.43331909 C-510.63978739 768.82810693 -509.37683815 764.2960967 -507.97787476 759.76144409 C-507.57291495 758.44297559 -507.16813417 757.12445208 -506.76351929 755.80587769 C-506.5556781 755.12998596 -506.34783691 754.45409424 -506.13369751 753.75772095 C-501.47545569 738.58588075 -497.11911202 723.35313646 -492.98617554 708.02902222 C-492.27533735 705.39844905 -491.55512368 702.77076248 -490.82943726 700.14425659 C-490.46584071 698.81621788 -490.10252362 697.48810259 -489.73959351 696.15988159 C-489.45213257 695.11058472 -489.16467163 694.06128784 -488.86849976 692.98019409 C-483.75558156 671.1997403 -489.85600057 649.70868298 -499.17709351 630.03488159 C-513.91067011 598.8756545 -518.55704019 567.11113767 -521.97140503 533.08456421 C-522.15978525 531.20735809 -522.35231187 529.33056926 -522.54525757 527.4538269 C-524.22885015 510.38169552 -524.40351317 493.30039621 -524.48959351 476.15988159 C-524.49922119 475.08649536 -524.50884888 474.01310913 -524.51876831 472.90719604 C-524.69467596 450.03219972 -521.38234003 428.22170777 -517.23959351 405.78488159 C-514.93118344 393.18074034 -512.77031715 380.61779443 -511.11459351 367.90988159 C-509.61679875 356.91291481 -506.61393697 347.18124204 -502.17709351 337.03488159 C-501.87867554 336.33862671 -501.58025757 335.64237183 -501.27279663 334.92501831 C-498.7970532 329.15144378 -496.25980982 323.40522728 -493.64974976 317.69113159 C-487.55329871 303.5900565 -484.54614369 288.38343727 -481.12631226 273.45675659 C-475.52231098 250.25076012 -460.58868214 230.47625868 -444.38803101 213.45675659 C-442.17174089 211.12458424 -440.04518207 208.73839515 -437.95053101 206.29660034 C-433.78673093 201.50759816 -429.34027334 197.01198995 -424.85385132 192.52633667 C-423.43789403 191.10819875 -422.03011062 189.68191494 -420.62240601 188.25558472 C-414.45207059 182.07235863 -408.00346342 176.47700384 -401.17709351 171.03488159 C-400.12583307 170.14835322 -399.07897124 169.25652556 -398.04037476 168.35519409 C-391.47281774 162.7028709 -384.61279223 157.79089071 -377.44271851 152.94503784 C-373.00005578 149.93506206 -368.64590189 146.81028429 -364.30209351 143.65988159 C-363.55161743 143.11686401 -362.80114136 142.57384644 -362.02792358 142.01437378 C-358.24252347 139.27150611 -354.46787085 136.51483906 -350.70443726 133.74191284 C-335.82602648 122.81685251 -320.51447513 113.16974398 -304.23544312 104.46652222 C-298.48163851 101.36648839 -292.93823999 98.0805649 -287.48959351 94.47238159 C-262.65759049 78.03717349 -237.82507481 67.83686001 -209.27062988 59.80215454 C-183.81896774 52.63571289 -159.77293162 44.03010424 -135.95443726 32.47091675 C-111.4923032 20.61169148 -86.42508129 11.57988469 -60.36459351 3.90988159 C-59.12669067 3.54346558 -57.88878784 3.17704956 -56.6133728 2.79953003 C-37.37503542 -2.69376492 -19.60538431 -2.78661432 0 0 Z M-19.17904663 66.34152222 C-21.45566608 66.73607999 -23.68130747 67.24157194 -25.92709351 67.78488159 C-26.80196411 67.99604614 -27.67683472 68.20721069 -28.57821655 68.42477417 C-56.86343487 75.61424061 -84.33066526 86.19489344 -110.48959351 99.03488159 C-123.38192708 105.35056325 -136.60603587 110.37930788 -150.17709351 115.03488159 C-151.21301636 115.39034058 -152.24893921 115.74579956 -153.31625366 116.11203003 C-165.01826919 120.07913063 -176.80978926 123.50927702 -188.77157593 126.58972168 C-200.11269946 129.51522084 -210.7430455 132.68026575 -221.17709351 138.03488159 C-222.14534058 138.51513794 -222.14534058 138.51513794 -223.13314819 139.00509644 C-232.91417607 143.85808125 -242.18602024 149.42120282 -251.42953491 155.22335815 C-256.79696541 158.58701377 -262.20365332 161.83137187 -267.73959351 164.90988159 C-268.39282593 165.27371948 -269.04605835 165.63755737 -269.71908569 166.01242065 C-271.5371406 167.02224471 -273.35664108 168.02938711 -275.17709351 169.03488159 C-290.85250902 177.69329173 -305.29305438 188.31801425 -319.75521851 198.83566284 C-324.15581186 202.03105391 -328.60099499 205.16043777 -333.05209351 208.28488159 C-335.13504032 209.75501599 -337.21637393 211.22737619 -339.29623413 212.70187378 C-340.98896121 213.90154795 -342.68442119 215.09736379 -344.38021851 216.29269409 C-349.96661929 220.34059413 -355.07593906 224.67181988 -360.09506226 229.39425659 C-360.74469437 230.00359039 -361.39432648 230.61292419 -362.06364441 231.24072266 C-368.61991876 237.41383331 -375.07926314 243.68224545 -381.46688843 250.0295105 C-382.73295302 251.28401062 -384.00348335 252.53401968 -385.27841187 253.7795105 C-404.1846281 272.25368119 -416.02243432 290.20403101 -422.17709351 316.03488159 C-428.46637431 342.09219579 -428.46637431 342.09219579 -433.05209351 353.28488159 C-433.38241577 354.09457397 -433.71273804 354.90426636 -434.05307007 355.73849487 C-435.73973836 359.79345244 -437.52635363 363.77311087 -439.43881226 367.72628784 C-447.76315389 385.78180252 -449.41203095 405.17823595 -452.01245117 424.69007874 C-453.07083086 432.53461939 -454.43632922 440.27204934 -455.98959351 448.03488159 C-461.56849959 476.97919426 -460.83852361 506.45736146 -459.59921265 535.79562378 C-459.25882526 544.22896533 -459.09777523 552.6542243 -458.99349976 561.09347534 C-458.96098567 563.46855836 -458.92835092 565.84363973 -458.89559937 568.21871948 C-458.84684389 571.78293473 -458.80260252 575.34688047 -458.77380371 578.91131592 C-458.66979445 591.61840185 -458.49935441 603.69256618 -455.17709351 616.03488159 C-454.9212146 617.00151733 -454.66533569 617.96815308 -454.40170288 618.96408081 C-453.6760571 621.58358745 -452.90380736 624.18392034 -452.11459351 626.78488159 C-444.2840854 653.68118257 -442.81344102 683.34742771 -455.98959351 708.90988159 C-458.05593529 712.3973548 -460.30075595 715.51487841 -462.89193726 718.62863159 C-467.29406895 724.06795166 -471.11493579 729.79851759 -474.92709351 735.65988159 C-480.93332832 744.78302804 -487.15970411 753.63694097 -493.8309021 762.28292847 C-496.05685714 765.17981882 -498.24016309 768.10849178 -500.42709351 771.03488159 C-501.67709351 772.70154826 -502.92709351 774.36821493 -504.17709351 776.03488159 C-503.38689819 776.65363159 -502.59670288 777.27238159 -501.78256226 777.90988159 C-498.76075016 780.37444798 -496.72868341 782.54983184 -495.36459351 786.22238159 C-494.28293994 788.33424639 -494.28293994 788.33424639 -491.53695679 788.61471558 C-485.06527004 789.42402911 -478.56162851 789.74811266 -472.05209351 790.09738159 C-470.80139069 790.16516312 -470.80139069 790.16516312 -469.52542114 790.23431396 C-448.83469961 791.30707543 -428.12923943 791.18564939 -407.41807365 791.06131649 C-403.93411308 791.04051697 -400.45014523 791.02277758 -396.96615601 791.00753784 C-396.27392063 791.00450968 -395.58168526 791.00148151 -394.86847305 790.99836159 C-384.39134278 790.96111423 -373.93703846 791.16522226 -363.46615601 791.51535034 C-344.95303202 792.13169918 -326.44968463 792.27598247 -307.92709351 792.28488159 C-306.6468203 792.28620716 -306.6468203 792.28620716 -305.34068298 792.28755951 C-277.81458398 792.31264809 -250.50680004 791.43102532 -223.03520203 789.6237793 C-209.57366014 788.76489393 -196.09533563 788.34366677 -182.61459351 787.90988159 C-181.44996582 787.87163269 -180.28533813 787.83338379 -179.0854187 787.79397583 C-172.05636377 787.56425916 -165.02693379 787.35198611 -157.99707031 787.14862061 C-154.7044807 787.05058444 -151.41219558 786.94565034 -148.11991692 786.83775806 C-129.38713022 786.22952797 -110.66558545 785.94769277 -91.92318726 785.85910034 C-89.68280459 785.84714284 -87.4424227 785.83503653 -85.20204163 785.82278442 C-66.68008886 785.72421792 -66.68008886 785.72421792 -57.75204468 785.70895386 C-31.50571889 785.65754925 -5.6406892 784.88792522 20.47654343 782.2286005 C21.33664646 782.14122844 22.1967495 782.05385637 23.08291626 781.96383667 C23.92461994 781.87830001 24.76632362 781.79276335 25.63353348 781.70463467 C36.58731103 780.62154239 47.55451197 780.330398 58.55593872 780.10797119 C103.77266483 779.15127609 149.40796728 776.00322148 193.88076782 767.41598511 C204.98842069 765.42620642 216.29690386 764.86763786 227.54556274 764.16134644 C241.8674146 763.23069997 255.77569549 760.98026454 269.82290649 758.03488159 C271.01166326 754.49821128 270.65806477 751.82129205 270.03775024 748.17160034 C269.84028198 746.99178589 269.64281372 745.81197144 269.43936157 744.59640503 C269.10327881 742.67876343 269.10327881 742.67876343 268.76040649 740.72238159 C268.52676795 739.36726572 268.29329116 738.01212195 268.05996704 736.6569519 C267.4486731 733.13094205 266.8229122 729.60767311 266.19070435 726.08535767 C265.84282524 724.14592879 265.49829142 722.20590072 265.15396118 720.26583862 C261.94317695 702.35620932 257.91899023 684.71120659 253.62783813 667.03439331 C251.06486802 656.44552854 248.69156621 645.84276869 246.52972412 635.16519165 C242.92760583 617.38152234 238.57687809 599.82634862 234.09164429 582.24624634 C229.71940961 565.08144555 225.78847876 547.87887152 222.19790649 530.53488159 C218.60045775 513.1725937 214.18224894 496.29850858 208.89639282 479.37814331 C204.43982215 465.09109711 201.3008852 450.79491492 198.81118774 436.03878784 C194.57672167 411.62149516 187.39637734 387.48476798 176.99087524 364.96066284 C171.86483403 353.6616785 168.03679787 341.83106973 164.24020386 330.03637695 C157.84328569 310.25028136 150.54775821 290.33492871 139.53970337 272.58615112 C133.62334232 263.03338034 128.82327612 252.97113585 124.00576782 242.83834839 C120.30373733 235.05819358 116.45768079 227.38430607 112.36758423 219.79977417 C109.77767398 214.96077331 107.41808623 210.05370003 105.13296509 205.06393433 C101.37079396 196.87182511 97.35447322 189.37699678 92.07144165 182.06808472 C88.30076223 176.83962072 85.00999344 171.41231223 81.76040649 165.84738159 C77.68800511 158.92547134 73.39653543 152.57784359 68.38931274 146.29269409 C59.79485826 135.49840855 52.41687453 124.08918956 45.86538696 111.96359253 C44.14754556 108.78538477 42.39989077 105.62488714 40.63540649 102.47238159 C40.04372681 101.39859253 39.45204712 100.32480347 38.84243774 99.21847534 C33.18978835 90.30762572 26.50514478 86.28018465 17.19790649 81.59738159 C14.76330142 80.35806986 12.33449646 79.10802358 9.90884399 77.85128784 C9.31214905 77.54550812 8.7154541 77.23972839 8.10067749 76.92468262 C3.96560673 74.76256287 0.21795658 72.27109269 -3.57553101 69.56222534 C-9.49555003 65.52191321 -12.18341339 65.26999595 -19.17904663 66.34152222 Z M1.82290649 68.03488159 C4.28049541 69.6732742 5.88060423 70.509726 8.59634399 71.40206909 C9.70042603 71.76751831 9.70042603 71.76751831 10.82681274 72.14035034 C11.60927368 72.39429565 12.39173462 72.64824097 13.19790649 72.90988159 C14.00357056 73.17671753 14.80923462 73.44355347 15.63931274 73.71847534 C20.34049143 75.2656041 25.06149706 76.68259586 29.82290649 78.03488159 C42.85446669 82.06845975 51.41227102 90.64019861 60.07290649 100.78488159 C67.80028012 109.76633972 76.20846066 118.30033722 85.69790649 125.40988159 C96.710062 133.67295715 106.24320047 143.83718662 115.22158813 154.23287964 C117.3783638 156.65995102 119.71186011 158.87032097 122.07290649 161.09738159 C132.43888489 171.26301666 139.95415929 183.62122044 147.63076782 195.85299683 C151.06074944 201.3114269 154.59543072 206.65130537 158.32290649 211.90988159 C163.63672057 219.44454167 168.17709759 227.39109368 172.76113892 235.38400269 C175.86347335 240.76652082 179.02682079 245.97782344 182.63540649 251.03488159 C198.57060808 273.48502748 207.4493225 299.65449352 215.66323853 325.69943237 C218.9776375 336.16772168 222.70868315 346.23181204 227.13540649 356.28488159 C237.66815112 380.43990328 244.70799757 406.34488818 248.84243774 432.34347534 C251.56521478 449.35713909 255.34748168 465.84875039 259.81362915 482.48873901 C266.43467153 507.52398598 268.8362693 533.39473042 271.86001587 559.05929565 C272.25099894 562.37691042 272.64656449 565.69392487 273.04653931 569.01046753 C276.43754184 597.13533343 278.87137713 625.13243198 279.82827759 653.45944214 C279.94777872 656.96862948 280.07817815 660.47729549 280.20962524 663.98605347 C280.64113674 675.96831105 280.90943655 687.94299196 280.94009399 699.93331909 C280.94517975 701.04557358 280.9502655 702.15782806 280.95550537 703.30378723 C280.94268769 713.28590444 280.1359171 723.16345526 279.26821899 733.10128784 C278.63816753 740.76197243 278.67134737 748.3548916 278.82290649 756.03488159 C279.76496948 755.88865356 280.70703247 755.74242554 281.67764282 755.59176636 C285.22382874 755.04225992 288.77070028 754.49729015 292.31777954 753.95358276 C293.84335629 753.71911353 295.36875273 753.48346758 296.89395142 753.24655151 C310.37447976 751.15390632 323.55151924 749.83149624 337.20254517 749.79464722 C339.38562283 749.78488062 341.56778007 749.75371569 343.75064087 749.72238159 C350.69839492 749.67225506 356.99363261 749.79256049 363.5296936 752.4850769 C369.59447493 753.93912647 375.48927348 751.23837076 381.04556274 749.00753784 C381.81968002 748.70321838 382.5937973 748.39889893 383.39137268 748.08535767 C385.89300794 747.09823175 388.38950215 746.09890172 390.88540649 745.09738159 C391.73949097 744.7568576 392.59357544 744.41633362 393.47354126 744.06549072 C412.66072242 736.41155218 431.16929442 728.16270679 449.23696899 718.12081909 C465.91932737 708.85807651 482.89070601 700.03505925 500.49087524 692.64035034 C519.39290481 684.68322304 537.97197663 675.41895962 548.82290649 657.03488159 C549.96491419 653.49027056 549.96491419 653.49027056 550.46743774 649.65206909 C550.58053787 648.93179535 550.693638 648.21152161 550.81016541 647.46942139 C552.25789816 637.82999129 553.2225839 628.11903886 554.18545532 618.42160034 C554.51206011 615.14328335 554.85141699 611.86645535 555.19204712 608.58956909 C555.406996 606.46985397 555.62121456 604.35006463 555.83462524 602.23019409 C555.93458298 601.26848297 556.03454071 600.30677185 556.13752747 599.31591797 C557.17552472 588.69362856 557.11561612 579.35238972 554.35415649 568.99581909 C554.08808594 567.96685516 553.82201538 566.93789124 553.54788208 565.87774658 C550.00864854 552.51622079 545.58234581 539.42819687 541.20913696 526.32199097 C536.39646498 511.85218724 532.28848966 497.44333188 529.05020142 482.53707886 C528.07990547 478.07667897 526.93947172 473.72117904 525.63540649 469.34738159 C523.46626377 461.44486163 522.50628796 453.41625367 521.53384399 445.29660034 C521.35704102 443.82924438 521.35704102 443.82924438 521.17666626 442.33224487 C520.92270452 439.96509011 520.71800442 437.59245497 520.5453186 435.21798706 C519.44189188 421.24182873 515.56315801 408.19435978 511.63540649 394.78488159 C510.97984748 392.5000871 510.32554459 390.21493181 509.67251587 387.92941284 C507.76508466 381.2850443 505.80831395 374.65633916 503.82290649 368.03488159 C503.50577698 366.97422485 503.18864746 365.91356812 502.86190796 364.82077026 C501.94899872 361.78906729 501.02024048 358.76277021 500.08462524 355.73800659 C499.81447098 354.84208801 499.54431671 353.94616943 499.26597595 353.02310181 C497.06447257 346.02397819 494.06961916 341.15841827 488.94790649 335.84738159 C484.50428503 331.01512657 480.67156177 325.84885766 476.82290649 320.53488159 C469.53726067 310.52691371 462.3008389 301.98177173 452.56118774 294.22238159 C446.01803196 288.99532419 440.08651241 283.38182406 434.43960571 277.20602417 C427.41253913 269.52533902 420.37880257 263.01794414 411.82290649 257.03488159 C411.14937134 256.56098999 410.47583618 256.08709839 409.78189087 255.59884644 C406.85191708 253.53767472 403.92133421 251.47745668 400.98403931 249.42672729 C396.00443993 245.93166957 391.28750339 242.22004445 386.61978149 238.31613159 C374.79410908 228.67061108 362.23406195 220.28699281 348.65249634 213.32687378 C338.55728968 208.14512464 330.32529716 202.66033233 322.37661743 194.50509644 C314.48491721 186.41073926 305.9334535 179.70641495 296.82290649 173.03488159 C295.20539346 171.84261477 293.58821194 170.64989808 291.97134399 169.45675659 C289.52898628 167.65659986 287.08613966 165.85711772 284.64224243 164.05905151 C282.36810098 162.38571933 280.09508204 160.71088205 277.82290649 159.03488159 C277.19867798 158.57484741 276.57444946 158.11481323 275.93130493 157.64083862 C269.13522189 152.60762064 262.71218302 147.31803876 256.6612854 141.40744019 C249.0446424 134.09838754 240.44518069 129.06870211 230.88540649 124.72238159 C223.58327274 121.32531728 216.40284556 117.81038198 209.32290649 113.97238159 C175.83637382 96.06697715 139.60692213 83.71731667 101.82290649 80.03488159 C97.19696606 79.56458208 92.57226282 79.08299189 87.94790649 78.59738159 C86.77848511 78.47596802 85.60906372 78.35455444 84.40420532 78.22946167 C75.24855462 77.25306904 66.17021054 75.93419987 57.07339478 74.51998901 C47.32226415 73.0354396 37.54702826 71.99142512 27.72744751 71.07394409 C21.48528927 70.47780534 15.38697039 69.68935835 9.24282837 68.42404175 C6.72910518 68.01979692 4.36445076 67.96856565 1.82290649 68.03488159 Z M532.18569946 731.45455933 C524.83704122 733.75856232 517.46296077 735.58365746 509.92959595 737.17941284 C494.68841107 740.41810231 479.85625109 744.57396723 464.94790649 749.09738159 C439.50084191 756.79019766 414.9396861 762.74212687 388.49893188 765.64938354 C385.85707255 765.8865015 385.85707255 765.8865015 383.82290649 767.03488159 C384.41291209 770.55823818 385.02245919 774.07794965 385.63540649 777.59738159 C385.88387329 779.08334839 385.88387329 779.08334839 386.13735962 780.59933472 C387.11552509 786.15457635 388.34017424 790.9627094 390.82290649 796.03488159 C391.48290649 796.03488159 392.14290649 796.03488159 392.82290649 796.03488159 C392.82290649 797.35488159 392.82290649 798.67488159 392.82290649 800.03488159 C389.4875316 798.92308996 388.18583306 797.56076861 385.82290649 795.03488159 C384.52364858 799.3657413 383.47928549 803.54962512 382.82290649 808.03488159 C382.16290649 808.03488159 381.50290649 808.03488159 380.82290649 808.03488159 C380.85771118 806.98687378 380.85771118 806.98687378 380.89321899 805.91769409 C380.91126587 805.00761597 380.92931274 804.09753784 380.94790649 803.15988159 C380.98271118 801.80249878 380.98271118 801.80249878 381.01821899 800.41769409 C381.06615485 797.84681165 381.06615485 797.84681165 378.82290649 796.03488159 C378.31243774 796.82249878 377.80196899 797.61011597 377.27603149 798.42160034 C366.78668294 814.13702503 354.03846399 825.61501291 339.14321899 837.10128784 C333.72581845 841.3239418 328.65919624 845.85633402 323.63540649 850.53488159 C322.63670532 851.4608313 322.63670532 851.4608313 321.61782837 852.40548706 C318.31175476 855.51829517 315.21927411 858.68231974 312.28775024 862.15206909 C309.05977487 865.90690315 305.58906444 868.78826712 301.57290649 871.65988159 C300.8903479 872.16003784 300.20778931 872.66019409 299.50454712 873.17550659 C298.04246968 874.24602677 296.57754892 875.31267292 295.11001587 876.3757019 C291.97033282 878.65337974 288.85004368 880.95697762 285.72891235 883.25997925 C284.12133462 884.44588388 282.51276796 885.63044908 280.90322876 886.81369019 C276.42040658 890.10992313 271.95522003 893.42757515 267.51187134 896.77682495 C264.89744906 898.74673059 262.27652593 900.70783516 259.6534729 902.66622925 C258.47668678 903.54607227 257.30172302 904.42836084 256.12905884 905.31369019 C237.36004298 919.43940257 216.40031277 930.64484425 195.14590454 940.5397644 C189.47731386 943.19626053 183.95624204 946.0626301 178.44790649 949.03488159 C154.75054195 961.69649267 130.03403409 969.60240966 103.91665649 975.45675659 C102.74014526 975.72310913 101.56363403 975.98946167 100.35147095 976.2638855 C97.97163125 976.78388368 95.58413658 977.26986235 93.19082642 977.72384644 C86.56780536 978.96315085 86.56780536 978.96315085 80.93618774 982.41769409 C80.04480103 983.7750769 80.04480103 983.7750769 79.13540649 985.15988159 C65.63876484 1003.76666474 42.31278257 1018.11641768 19.85025024 1022.63253784 C14.45730593 1023.3966001 10.23662243 1023.30108557 5.48306274 1020.46066284 C1.87071727 1017.35829556 0.27901243 1013.57197085 -0.55209351 1008.94894409 C-0.866064 1003.82730036 0.53315403 1000.84406866 3.82290649 997.03488159 C9.18500304 992.71734931 15.15009025 991.16375005 21.69790649 989.28488159 C22.76782837 988.96906128 23.83775024 988.65324097 24.94009399 988.32785034 C27.56517138 987.55439004 30.19261921 986.79039642 32.82290649 986.03488159 C32.82290649 985.70488159 32.82290649 985.37488159 32.82290649 985.03488159 C31.80694397 985.05708771 30.79098145 985.07929382 29.74423218 985.10217285 C15.68821993 985.39697392 1.63158105 985.55945067 -12.42709351 985.65988159 C-14.2129184 985.67272186 -14.2129184 985.67272186 -16.03482056 985.68582153 C-77.60467287 986.07319624 -138.95782223 982.27537791 -200.39291382 978.5920105 C-201.36328315 978.53391417 -202.33365249 978.47581785 -203.33342695 978.41596103 C-212.5932747 977.86129589 -221.85289399 977.30403048 -231.11103511 976.7214874 C-234.46262468 976.51120002 -237.81444555 976.30476009 -241.16630697 976.09885669 C-242.69252143 976.00405786 -244.21862363 975.90742759 -245.74458551 975.80864644 C-256.23580001 975.12976822 -266.66437056 974.92659379 -277.17709351 975.03488159 C-277.4436676 975.70108521 -277.7102417 976.36728882 -277.9848938 977.05368042 C-292.81480059 1014.07842682 -292.81480059 1014.07842682 -307.17709351 1021.03488159 C-330.96504289 1031.14491467 -357.02294882 1034.11675226 -382.17709351 1028.03488159 C-384.11227369 1027.60757023 -386.04954582 1027.18952011 -387.98959351 1026.78488159 C-388.75916382 1026.61472534 -389.52873413 1026.44456909 -390.32162476 1026.26925659 C-392.26803859 1025.84878017 -392.26803859 1025.84878017 -394.17709351 1027.03488159 C-392.17709351 1024.03488159 -392.17709351 1024.03488159 -389.88070679 1023.4382019 C-388.4534729 1023.27723022 -388.4534729 1023.27723022 -386.99740601 1023.11300659 C-385.93352661 1022.97870239 -384.86964722 1022.84439819 -383.77352905 1022.70602417 C-382.62795532 1022.56704712 -381.48238159 1022.42807007 -380.30209351 1022.28488159 C-368.19296897 1020.60810594 -357.46074922 1017.65243911 -346.17709351 1013.03488159 C-345.29650269 1012.682323 -344.41591187 1012.3297644 -343.50863647 1011.96652222 C-320.38713505 1003.06368389 -320.38713505 1003.06368389 -303.17709351 986.03488159 C-302.16969116 984.54408081 -302.16969116 984.54408081 -301.14193726 983.02316284 C-297.6464881 978.38420116 -297.6464881 978.38420116 -296.17709351 973.03488159 C-297.29857788 972.96011597 -298.42006226 972.88535034 -299.57553101 972.80831909 C-320.41600392 971.21794221 -340.96496785 967.18718073 -361.40365601 962.93331909 C-362.26143646 962.75509613 -363.11921692 962.57687317 -364.00299072 962.39324951 C-368.15668064 961.52754855 -372.30725597 960.64981014 -376.45394897 959.75119019 C-390.21597881 956.80773406 -404.18869231 954.61598411 -418.30209351 954.72238159 C-419.60074341 954.73192871 -419.60074341 954.73192871 -420.92562866 954.7416687 C-441.22868896 955.12033545 -460.7200491 959.52497426 -480.38461304 964.15939331 C-486.27626048 965.51947106 -492.19218807 966.75438084 -498.11459351 967.97238159 C-499.13939819 968.18362671 -500.16420288 968.39487183 -501.22006226 968.61251831 C-503.53861303 969.0889384 -505.85755541 969.56329623 -508.17709351 970.03488159 C-508.17709351 970.36488159 -508.17709351 970.69488159 -508.17709351 971.03488159 C-507.16679077 971.04890015 -507.16679077 971.04890015 -506.13607788 971.0632019 C-488.26115937 971.37391112 -472.40540168 971.70560279 -457.17709351 982.03488159 C-456.11748413 982.4950769 -456.11748413 982.4950769 -455.03646851 982.96456909 C-452.66319969 984.33069442 -452.23097758 985.53812618 -451.17709351 988.03488159 C-449.89575709 990.30216846 -448.59983832 992.56045141 -447.29818726 994.81613159 C-444.16095759 1001.02500425 -443.94911807 1009.09488457 -446.00131226 1015.67941284 C-446.97446866 1017.86087497 -448.02248452 1019.9447865 -449.17709351 1022.03488159 C-449.61408569 1023.08675659 -449.61408569 1023.08675659 -450.05990601 1024.15988159 C-451.46628268 1026.52023405 -452.66221058 1027.00042335 -455.17709351 1028.03488159 C-456.18836304 1028.54728394 -456.18836304 1028.54728394 -457.22006226 1029.07003784 C-457.92775757 1029.40906128 -458.63545288 1029.74808472 -459.36459351 1030.09738159 C-460.40680054 1030.60978394 -460.40680054 1030.60978394 -461.47006226 1031.13253784 C-468.38480674 1033.43745267 -474.59334403 1033.08351565 -481.61459351 1031.59738159 C-494.55536804 1029.19096614 -508.12959992 1027.72926103 -520.17709351 1034.03488159 C-520.82807007 1034.36230347 -521.47904663 1034.68972534 -522.14974976 1035.02706909 C-531.50305095 1040.65960651 -536.36511757 1053.78230881 -541.17709351 1063.09738159 C-541.63265121 1063.97854141 -541.63265121 1063.97854141 -542.09741211 1064.87750244 C-552.83149564 1085.71595448 -562.44065507 1108.21280736 -557.11459351 1132.09738159 C-553.53417805 1142.77440525 -544.83679574 1147.45869774 -535.76303101 1153.12472534 C-531.36867958 1155.87929667 -527.14022842 1158.82513279 -522.92709351 1161.84738159 C-494.25036346 1182.27133252 -470.26115365 1197.51750715 -434.05209351 1197.34738159 C-432.91545761 1197.34614288 -432.91545761 1197.34614288 -431.75585938 1197.34487915 C-420.02208301 1197.3159636 -408.45853899 1196.61679468 -396.78799438 1195.45275879 C-379.76744619 1193.76835963 -362.71329591 1193.30025895 -345.6211853 1192.8576355 C-329.71930368 1192.40667039 -314.12969581 1191.01968223 -298.46298218 1188.19796753 C-280.90639094 1185.15317531 -263.16073702 1185.43660191 -245.39608765 1185.30703735 C-241.86215795 1185.27756358 -238.32848382 1185.23318283 -234.79471874 1185.1885004 C-230.48604795 1185.1351624 -226.17730257 1185.09161363 -221.86849976 1185.05050659 C-221.03685995 1185.042083 -220.20522015 1185.0336594 -219.34837914 1185.02498055 C-208.70364954 1184.92733851 -198.09901405 1184.96049746 -187.50596619 1186.18814087 C-183.22444085 1186.56689997 -183.22444085 1186.56689997 -179.40048218 1184.86482239 C-176.65507397 1182.23339521 -174.52161028 1179.35856406 -172.81771851 1175.95285034 C-170.28413066 1171.15200062 -167.41735005 1166.62178988 -164.49154663 1162.05148315 C-161.32573648 1157.08347767 -158.2564555 1152.05673744 -155.17709351 1147.03488159 C-154.36000051 1145.71028306 -153.54239268 1144.38600179 -152.72396851 1143.06222534 C-150.21560897 1138.99848538 -147.7111667 1134.93523907 -145.27474976 1130.82785034 C-127.24571427 1100.73185645 -102.81054664 1081.20796027 -68.65756226 1072.34347534 C-37.75833512 1064.77396177 -5.0487918 1062.81924735 26.69790649 1062.72238159 C27.57211243 1062.71943085 28.44631836 1062.7164801 29.34701538 1062.71343994 C50.47658953 1062.69795413 71.57590447 1063.71495944 92.67664337 1064.71649551 C95.41619994 1064.8458841 98.15588011 1064.97231382 100.89559937 1065.09820557 C166.25275721 1068.12649461 166.25275721 1068.12649461 192.82290649 1079.03488159 C191.93732056 1078.96269409 191.05173462 1078.89050659 190.13931274 1078.81613159 C164.65816355 1076.90703405 140.45767491 1080.00960422 115.3583374 1084.24188232 C103.08754845 1086.3026507 90.80698844 1087.93237139 78.44970703 1089.3772583 C58.35540558 1091.73666707 38.41252567 1094.75771453 18.47558975 1098.17712784 C16.42340276 1098.52837819 14.37070831 1098.87651019 12.31787109 1099.22393799 C-18.05382962 1104.37861464 -47.90736787 1110.17780173 -75.17709351 1125.03488159 C-76.38945679 1125.66136597 -76.38945679 1125.66136597 -77.62631226 1126.30050659 C-87.45681904 1131.78550448 -93.72000002 1141.88369775 -99.36459351 1151.28488159 C-100.66448917 1153.40651818 -101.96529136 1155.52759959 -103.26693726 1157.64816284 C-103.91646362 1158.71244507 -104.56598999 1159.77672729 -105.23519897 1160.8732605 C-108.24530466 1165.77404861 -111.33193417 1170.62501103 -114.42709351 1175.47238159 C-115.00443237 1176.37754517 -115.58177124 1177.28270874 -116.17660522 1178.21530151 C-117.84150159 1180.82307044 -119.50883217 1183.42926434 -121.17709351 1186.03488159 C-121.68256714 1186.82539917 -122.18804077 1187.61591675 -122.70883179 1188.4303894 C-125.43166523 1192.68397 -128.17059488 1196.92621537 -130.94076538 1201.1491394 C-131.74995416 1202.383376 -132.55607053 1203.61963374 -133.35873413 1204.85812378 C-141.42405741 1217.25838657 -149.94167124 1226.16701643 -163.17709351 1233.03488159 C-150.77890784 1274.54482917 -129.74488044 1310.82454732 -96.51303101 1338.90206909 C-94.53732274 1340.70597664 -92.69085152 1342.55038961 -90.84115601 1344.48019409 C-72.08017297 1364.0132239 -53.45514163 1371.01201413 -26.23959351 1371.65988159 C-25.20205429 1371.68640808 -25.20205429 1371.68640808 -24.14355469 1371.71347046 C-18.15527503 1371.86255282 -12.16667238 1371.95618286 -6.17709351 1372.03488159 C-5.08400879 1372.0492627 -3.99092407 1372.0636438 -2.86471558 1372.07846069 C4.6745767 1372.17162261 12.21356794 1372.23110658 19.75335693 1372.26504517 C22.26728383 1372.27789078 24.7811927 1372.29552549 27.29504395 1372.31887817 C67.00733728 1372.65987747 106.60273099 1368.59308187 146.10693359 1364.95555115 C151.60637774 1364.44994421 157.10628392 1363.94940377 162.60610962 1363.44796753 C171.19824503 1362.66386466 179.78998786 1361.87558384 188.38150024 1361.08468628 C196.59797038 1360.32852088 204.81535724 1359.58361907 213.03385925 1358.84989929 C260.44921783 1354.61454047 305.88777535 1347.33015202 352.12051392 1335.86520386 C385.59325337 1327.57682734 419.3885733 1319.79448146 453.91275024 1317.71847534 C481.12182595 1315.96656323 507.55296006 1308.71743873 533.90313721 1302.10562134 C546.18921202 1299.02405353 558.3661064 1296.22677583 570.88540649 1294.28488159 C581.38717981 1292.60438152 589.90496281 1289.85312676 598.82290649 1284.03488159 C599.41668091 1283.65702515 600.01045532 1283.2791687 600.6222229 1282.88986206 C609.89678347 1276.90071783 617.9291658 1269.71254042 625.82290649 1262.03488159 C626.43311646 1261.45045288 627.04332642 1260.86602417 627.67202759 1260.2638855 C636.52658959 1251.77101099 644.71421025 1243.05360583 651.82290649 1233.03488159 C652.50095337 1232.08613159 653.17900024 1231.13738159 653.87759399 1230.15988159 C661.71856474 1218.045077 663.58943945 1203.39918999 666.26040649 1189.47238159 C669.82752959 1170.96520845 674.8627586 1154.78731492 687.18618774 1140.18331909 C699.49638349 1125.82394854 699.49638349 1125.82394854 707.82290649 1109.03488159 C708.07427368 1108.35554565 708.32564087 1107.67620972 708.58462524 1106.97628784 C711.54041933 1097.61941101 708.39296235 1086.62706278 706.86196899 1077.21066284 C706.67073456 1076.02441818 706.47950012 1074.83817352 706.2824707 1073.61598206 C705.87938204 1071.12564347 705.47421063 1068.63564118 705.06704712 1066.14596558 C704.44820865 1062.34923538 703.84235882 1058.55057322 703.23696899 1054.75167847 C702.84192904 1052.32121084 702.44612192 1049.89086775 702.04946899 1047.46066284 C701.87122589 1046.33340286 701.69298279 1045.20614288 701.50933838 1044.04472351 C699.73264087 1033.33791649 697.52168431 1026.01470251 688.57778931 1019.25411987 C672.58870153 1008.14539639 660.22495029 1004.73987377 641.07290649 1008.15988159 C639.96946899 1008.36742065 638.86603149 1008.57495972 637.72915649 1008.78878784 C628.84173206 1010.301319 620.49461808 1010.45416081 612.32290649 1006.22238159 C606.9312831 1001.50471112 603.33105491 996.42454921 602.49868774 989.23410034 C602.19614871 981.02381693 603.5565257 974.71523078 609.07290649 968.49972534 C619.56034052 959.09976672 635.76259615 954.68038632 648.72647095 949.51535034 C649.41130051 949.24189285 650.09613007 948.96843536 650.80171204 948.68669128 C652.68605822 947.93555786 654.57205824 947.18857722 656.4581604 946.44186401 C666.00380194 942.45031473 669.62405951 938.35791769 673.71353149 928.92941284 C678.31889951 916.91329417 676.53593506 905.93024776 672.76040649 893.90988159 C672.45095093 892.91577271 672.14149536 891.92166382 671.82266235 890.89743042 C665.86372543 872.35305181 657.70996599 856.13825445 640.76040649 845.40988159 C632.14267948 839.81280116 624.2351018 832.68926886 617.16665649 825.25363159 C616.57264038 824.63230347 615.97862427 824.01097534 615.36660767 823.37081909 C614.25766709 822.19478847 613.16487967 821.00318256 612.09365845 819.79269409 C602.70087842 809.79719235 586.95905653 807.71901652 574.14810181 804.48532104 C556.8373569 800.08752244 556.8373569 800.08752244 550.82290649 794.03488159 C550.08040649 793.29238159 549.33790649 792.54988159 548.57290649 791.78488159 C543.32882353 783.5441798 541.75866095 775.14623844 541.32290649 765.53488159 C541.28230103 764.71624634 541.24169556 763.89761108 541.19985962 763.0541687 C540.9740974 758.45600009 540.77096459 753.85697287 540.57290649 749.25753784 C540.53101196 748.31265503 540.48911743 747.36777222 540.44595337 746.39425659 C540.365247 744.55978791 540.28829411 742.72514942 540.21548462 740.89035034 C540.17874634 740.05245972 540.14200806 739.21456909 540.10415649 738.35128784 C540.07386353 737.61338013 540.04357056 736.87547241 540.01235962 736.11520386 C539.81991481 734.00203089 539.39203571 732.07608542 538.82290649 730.03488159 C536.42579669 730.03488159 534.45498531 730.73857 532.18569946 731.45455933 Z M-497.17709351 794.03488159 C-498.19416382 795.15249878 -498.19416382 795.15249878 -499.23178101 796.29269409 C-502.19647064 799.24491832 -505.55725102 801.10473994 -509.30209351 802.90988159 C-510.34272949 803.4180542 -510.34272949 803.4180542 -511.40438843 803.93649292 C-528.17171948 811.92634495 -549.38978612 820.50346025 -568.17709351 821.03488159 C-568.79713257 820.69585815 -569.41717163 820.35683472 -570.05599976 820.00753784 C-574.2842168 818.06863168 -578.47920844 819.78580477 -582.65756226 821.27706909 C-583.89856128 821.80909354 -585.13404251 822.35411829 -586.36459351 822.90988159 C-587.04529907 823.21377808 -587.72600464 823.51767456 -588.42733765 823.83078003 C-602.98239476 830.48732554 -616.64683751 838.71413674 -629.95394897 847.56515503 C-632.33154985 849.13699307 -634.72298262 850.68580759 -637.11849976 852.23019409 C-683.06016677 878.76999771 -683.06016677 878.76999771 -716.17709351 918.03488159 C-702.54899748 925.09228846 -686.84937853 925.61785044 -671.80209351 926.65988159 C-669.3077564 926.84105892 -666.81361594 927.02477768 -664.31948853 927.20881653 C-662.72417566 927.3261142 -661.12875805 927.44199703 -659.53323364 927.55638123 C-655.59045657 927.84159179 -651.66193124 928.17062382 -647.73178101 928.60128784 C-630.17197162 930.43538786 -613.18710549 928.65855377 -595.89096069 925.65011597 C-592.02805217 925.0101916 -588.15776454 924.45516701 -584.27865601 923.92550659 C-557.36023106 920.20339995 -530.70347854 915.14083334 -504.01522827 910.0607605 C-452.80402466 900.31734808 -452.80402466 900.31734808 -436.02108765 900.51339722 C-433.86945854 900.53483312 -431.72120289 900.51336175 -429.56967163 900.48800659 C-406.96391668 900.43526459 -384.70539683 905.36052091 -362.7460022 910.23727417 C-337.19068472 915.850278 -312.26963839 919.55564869 -286.17709351 921.03488159 C-284.22635909 921.14909641 -282.27562528 921.26332182 -280.3249073 921.37781715 C-259.56286823 922.59271124 -238.7930328 923.64057774 -218.02022743 924.65187263 C-209.13614046 925.08460208 -200.25256686 925.52749413 -191.36899185 925.97058868 C-176.17796475 926.72800106 -160.98656778 927.47758646 -145.79476166 928.21920395 C-136.67561594 928.6644384 -127.55676052 929.1148846 -118.43832397 929.57443237 C-117.54196228 929.61954264 -116.64560059 929.6646529 -115.72207642 929.71113014 C-111.41603792 929.92788864 -107.11003882 930.14537717 -102.80410767 930.36425781 C-39.80520689 933.55070072 23.78359322 933.91256751 85.82290649 921.03488159 C86.85415649 920.82138062 87.88540649 920.60787964 88.94790649 920.38790894 C114.21925263 914.99276664 136.81681023 904.33065491 159.66636658 892.640625 C164.76672507 890.04068096 169.93534118 887.61426978 175.13540649 885.22238159 C199.00321051 874.07126156 220.68629274 858.40409815 241.68276978 842.63693237 C245.04491877 840.12011493 248.43392022 837.64036803 251.82290649 835.15988159 C252.42997437 834.71322144 253.03704224 834.26656128 253.6625061 833.80636597 C256.42973562 831.77227555 259.20824522 829.7640139 262.01821899 827.78878784 C263.46841431 826.76591675 263.46841431 826.76591675 264.94790649 825.72238159 C265.77548462 825.14874878 266.60306274 824.57511597 267.45571899 823.98410034 C270.36019729 821.59245898 272.48712349 818.98162563 274.82290649 816.03488159 C274.28327271 816.11528687 273.74363892 816.19569214 273.18765259 816.27853394 C262.80806216 817.79596728 252.50122394 819.0662636 242.01821899 819.55441284 C227.01419482 820.27286834 212.49788051 822.4111956 197.69790649 824.90988159 C175.24771404 828.68612409 152.88642474 831.20657607 130.18655396 832.86099243 C127.96618248 833.02434104 125.7465544 833.19519489 123.52700806 833.36935425 C106.11796693 834.7263295 88.76226432 835.2229264 71.30993652 835.52056885 C56.67458838 835.78117034 42.16213095 836.57670506 27.58779907 837.93112183 C10.02241251 839.56294456 -7.53481045 840.16894254 -25.17118835 840.29524231 C-28.20131728 840.31697783 -31.23136679 840.34392833 -34.26144409 840.37191772 C-40.73329267 840.43074975 -47.205186 840.48301401 -53.67709351 840.53488159 C-62.14588138 840.60374533 -70.61462942 840.67621089 -79.08334351 840.75363159 C-80.13580954 840.76307989 -81.18827557 840.77252819 -82.27263451 840.7822628 C-97.1158491 840.91904646 -111.95121214 841.18744804 -126.79037476 841.55441284 C-148.43385843 842.08471222 -170.0703177 842.22248932 -191.71981812 842.22018433 C-195.8360731 842.22010242 -199.9522183 842.22717932 -204.06845093 842.24069214 C-235.90694922 842.34320234 -267.75599378 842.33370528 -299.30209351 837.47238159 C-300.15717499 837.34516724 -301.01225647 837.21795288 -301.89324951 837.08688354 C-323.19627286 833.91656852 -344.34773575 829.93348745 -365.47488403 825.76516724 C-368.06779937 825.2536973 -370.66089978 824.74326538 -373.25430298 824.23428345 C-382.26313482 822.46571334 -391.26856116 820.68076725 -400.27069092 818.87838745 C-403.23601124 818.28471912 -406.20200573 817.6946362 -409.16870117 817.10787964 C-470.8288066 804.89360486 -470.8288066 804.89360486 -497.17709351 794.03488159 Z M566.63540649 1344.78488159 C565.37816772 1344.9995105 564.12092896 1345.2141394 562.82559204 1345.43527222 C551.41721555 1347.47387168 540.29902766 1350.4516055 529.13540649 1353.53488159 C502.90330811 1360.7689696 476.80298484 1365.84266746 449.57290649 1367.49581909 C426.48356944 1369.00673559 404.56209775 1373.95610803 382.0909729 1379.3107605 C370.40559666 1382.09170715 358.69784449 1384.77697823 346.99313927 1387.47514534 C342.74334923 1388.45529833 338.49481623 1389.44066895 334.2473774 1390.4309597 C313.77648226 1395.20354382 293.47075487 1399.86866033 272.57290649 1402.28488159 C271.12229939 1402.45864207 269.67177813 1402.63312072 268.22134399 1402.80831909 C264.75613681 1403.22536467 261.28990977 1403.63300384 257.82290649 1404.03488159 C261.59934435 1441.37011951 283.29710002 1484.49700955 305.82290649 1514.03488159 C306.46921021 1515.08856934 306.46921021 1515.08856934 307.12857056 1516.1635437 C309.75396229 1520.30150478 309.75396229 1520.30150478 313.81411743 1522.81246948 C316.26957825 1523.17645225 318.59030293 1523.2460978 321.07290649 1523.22238159 C322.01762817 1523.23664185 322.96234985 1523.2509021 323.93569946 1523.26559448 C350.77868503 1523.29748461 377.53083798 1519.06829791 403.82290649 1514.03488159 C404.51523376 1513.904646 405.20756104 1513.7744104 405.92086792 1513.64022827 C452.84005993 1504.79070591 501.66184276 1489.5697534 541.79824829 1463.27975464 C546.49434987 1460.20524071 551.30920165 1457.38862703 556.20181274 1454.64035034 C566.48032226 1448.34457179 569.47940615 1439.19560366 572.82290649 1428.03488159 C573.16466919 1426.90276245 573.50643188 1425.77064331 573.85855103 1424.60421753 C581.71104488 1397.87090435 584.76906656 1371.79650872 582.82290649 1344.03488159 C577.41284706 1342.2908753 572.10839658 1343.84587186 566.63540649 1344.78488159 Z M323.82290649 1587.03488159 C324.82290649 1589.03488159 324.82290649 1589.03488159 324.82290649 1589.03488159 Z " fill="#000000" transform="translate(1060.1770935058594,241.96511840820313)"/>
<path d="M0 0 C1.10190674 0.29342285 1.10190674 0.29342285 2.22607422 0.59277344 C32.04880556 8.75278324 56.33367331 24.89486303 72 52 C88.58019169 82.40737554 92.56036685 109.98035567 89.93295288 144.06347656 C89.81290178 145.62127721 89.69674256 147.17938368 89.58486938 148.73779297 C88.0688324 169.40213935 83.34157458 188.0765944 68 203 C67.33613281 203.68449219 66.67226562 204.36898438 65.98828125 205.07421875 C53.36770692 217.31016605 36.15671292 223.06347337 20 229 C18.90574707 229.40895508 17.81149414 229.81791016 16.68408203 230.23925781 C-26.18669077 246.23958359 -70.29664643 256.07901432 -116 259 C-116.99954712 259.06574219 -116.99954712 259.06574219 -118.01928711 259.1328125 C-140.02114027 260.57146245 -162.01538233 261.21148208 -184.06378174 261.29754639 C-186.52681767 261.30737142 -188.98984044 261.32175796 -191.45281982 261.34112549 C-206.58020027 261.44552014 -221.1048919 260.70455738 -236 258 C-237.15556396 257.7949585 -238.31112793 257.58991699 -239.50170898 257.37866211 C-242.11401453 256.89031343 -244.71333815 256.36592551 -247.3125 255.8125 C-248.60124023 255.54663086 -248.60124023 255.54663086 -249.91601562 255.27539062 C-251.94519507 254.8559513 -253.97281059 254.42895415 -256 254 C-256 253.67 -256 253.34 -256 253 C-251.16399353 252.03781878 -246.35941771 251.72012268 -241.45019531 251.40551758 C-222.72168948 250.17757663 -204.69303406 247.20205666 -186.43359375 242.90234375 C-185.79869207 242.75340919 -185.1637904 242.60447464 -184.50964928 242.45102692 C-123.00232126 228.01199408 -63.09854727 212.78993884 -6.26806641 184.59863281 C-3.19013693 183.09300886 -0.09464994 181.6398032 3.01953125 180.2109375 C21.45148928 172.6524771 21.45148928 172.6524771 34.897995 159.06347656 C36.63700544 153.65340758 37.7490006 148.38434494 38.45703125 142.75 C38.56850998 141.89301514 38.67998871 141.03603027 38.79484558 140.15307617 C39.02563819 138.34860637 39.25142839 136.54349026 39.47241211 134.73779297 C39.80857744 132.03157757 40.17594189 129.33081583 40.54492188 126.62890625 C42.59041613 110.78709603 41.68481114 96.8750787 36.3125 81.6875 C35.95873291 80.66205078 35.60496582 79.63660156 35.24047852 78.58007812 C32.59541445 71.1481163 29.67420216 64.40818039 25 58 C24.22269531 56.92685547 24.22269531 56.92685547 23.4296875 55.83203125 C15.27486375 45.64835038 3.38999137 38.98035261 -8 33 C-9.7015625 32.09894531 -9.7015625 32.09894531 -11.4375 31.1796875 C-45.31336046 14.00581503 -81.74658726 3.29725645 -119.625 2.4375 C-121.41016462 2.39422426 -123.19532101 2.35060737 -124.98046875 2.30664062 C-129.32022748 2.2004911 -133.66007178 2.09896742 -138 2 C-136.35 2.99 -134.7 3.98 -133 5 C-136 6 -136 6 -138.26171875 5.00390625 C-139.06222656 4.52824219 -139.86273437 4.05257813 -140.6875 3.5625 C-141.49574219 3.08941406 -142.30398438 2.61632813 -143.13671875 2.12890625 C-143.75160156 1.75636719 -144.36648438 1.38382813 -145 1 C-145 0.34 -145 -0.32 -145 -1 C-136.86008685 -2.9524473 -128.63420492 -4.29794021 -120.37963867 -5.65942383 C-117.93941842 -6.06218336 -115.49995097 -6.46928264 -113.06054688 -6.87695312 C-111.48702184 -7.13827792 -109.91345548 -7.39935405 -108.33984375 -7.66015625 C-107.62191147 -7.77996353 -106.90397919 -7.89977081 -106.16429138 -8.02320862 C-71.54385308 -13.71369706 -33.72486351 -9.03434043 0 0 Z " fill="#000000" transform="translate(1378,1226)"/>
<path d="M0 0 C1.83203125 0.1953125 1.83203125 0.1953125 4 1 C5.44921875 3.1796875 5.44921875 3.1796875 6.6875 5.875 C7.10386719 6.75929688 7.52023437 7.64359375 7.94921875 8.5546875 C11.99459664 17.96883827 10.97004321 29.74776104 7.30859375 39.1484375 C0.17951032 54.68345512 -11.01717088 68.1163716 -25 78 C-25.66 78 -26.32 78 -27 78 C-27 78.66 -27 79.32 -27 80 C-26.15695312 80.10054687 -25.31390625 80.20109375 -24.4453125 80.3046875 C-20.62514752 81.0756505 -17.35848131 82.44247444 -13.875 84.125 C-13.21975342 84.43920898 -12.56450684 84.75341797 -11.8894043 85.07714844 C-0.34070502 90.69232657 8.93359344 96.97233877 18 106 C19.07894531 107.02673828 19.07894531 107.02673828 20.1796875 108.07421875 C35.15561123 123.38093597 43.41064015 146.36701158 43.37084961 167.44897461 C42.92767891 184.18376758 35.85383836 198.54838848 25 211 C23.4148 206.98683545 24.66393525 204.00904192 25.875 200 C30.32149153 184.31936585 29.38554558 170.69334857 22 156 C10.95441463 136.48957351 -5.6689878 124.15916715 -27.13354492 118.01391602 C-41.98362269 113.9987663 -56.98963054 111.62055426 -72.29956055 110.21411133 C-81.56792678 109.26089301 -90.48043369 106.99660775 -97 100 C-100.08427102 94.93136344 -100.40819245 90.11534592 -99.56640625 84.3203125 C-98.01863679 77.97979484 -93.25330049 73.53638538 -88 70 C-80.36733795 66.54595368 -72.35830877 64.88368702 -64.1875 63.25 C-47.29555883 59.66791791 -30.36454309 54.90971643 -16 45 C-15.1853125 44.45859375 -14.370625 43.9171875 -13.53125 43.359375 C-4.70758859 37.06516319 1.48116344 28.19405944 3.46484375 17.4921875 C4.36575665 10.7100342 3.24463537 6.0257514 0 0 Z " fill="#000000" transform="translate(1564,1118)"/>
<path d="M0 0 C0.66 0 1.32 0 2 0 C2 0.99 2 1.98 2 3 C2.99 3.495 2.99 3.495 4 4 C3.41265455 37.01790039 0.83765607 62.12789968 -23.4765625 86.48046875 C-33.34079193 95.81453602 -45.4003959 101.96316108 -57.46850586 107.95727539 C-59.46548378 108.95143117 -61.45442403 109.96056976 -63.44335938 110.97070312 C-64.7313187 111.61548726 -66.01971433 112.2594008 -67.30859375 112.90234375 C-69.02260376 113.76073853 -69.02260376 113.76073853 -70.77124023 114.63647461 C-73.90298533 115.9590301 -76.63663667 116.60084908 -80 117 C-72.2183757 107.48912585 -63.52699106 99.06408708 -53.9296875 91.4140625 C-45.92171265 84.81549123 -38.14173804 77.73278375 -31.5 69.74609375 C-29.94694552 67.93824127 -28.29096912 66.32723075 -26.5625 64.6875 C-9.67745569 47.87800399 -2.26399949 23.22551201 0 0 Z " fill="#000000" transform="translate(1601,1410)"/>
<path d="M0 0 C4.56206511 0.53491551 4.56206511 0.53491551 6.44921875 2.5390625 C6.85785156 3.22742187 7.26648438 3.91578125 7.6875 4.625 C8.19023438 5.43453125 8.69296875 6.2440625 9.2109375 7.078125 C9.80132813 8.04234375 10.39171875 9.0065625 11 10 C26.38283737 34.03824719 42.1689545 49.22731789 70.66357422 55.53613281 C75.44258224 56.48494318 80.24758679 57.06362 85.09375 57.54296875 C88 58 88 58 91 60 C74.45057875 66.74235681 55.86372078 68.1457008 38.875 62.0625 C22.49861083 54.62862508 11.5251871 37.14579058 5.17724609 20.89355469 C3.99860747 17.60246215 2.94008055 14.290363 1.91015625 10.94921875 C1.12015405 8.10399737 1.12015405 8.10399737 0 6 C-0.039992 4.00039988 -0.04346799 1.99952758 0 0 Z " fill="#000000" transform="translate(572,1317)"/>
<path d="M0 0 C2.5 0.0625 2.5 0.0625 5 1 C8.15577281 5.95907156 7.52031214 11.5635683 6.34765625 17.0546875 C1.92043914 33.20547954 -9.7818196 45.51153409 -24 54 C-36.36561712 60.97776562 -50.83743708 68.25550084 -65.3125 68.0625 C-66.63701172 68.04896484 -66.63701172 68.04896484 -67.98828125 68.03515625 C-68.65214844 68.02355469 -69.31601562 68.01195312 -70 68 C-67.14109446 65.67983294 -64.12760405 63.95903486 -60.87451172 62.24829102 C-51.94299708 57.50989894 -44.21081941 51.7377765 -36.3359375 45.4296875 C-32.49330966 42.35524533 -28.54024645 39.4942495 -24.5 36.6875 C-15.23770527 30.15754271 -6.71350981 23.61497737 -2 13 C-2 12.01 -2 11.02 -2 10 C-3.98 12.31 -5.96 14.62 -8 17 C-8.66 16.67 -9.32 16.34 -10 16 C-8.71226848 13.70604107 -7.42003228 11.41483216 -6.125 9.125 C-5.76019531 8.47402344 -5.39539063 7.82304688 -5.01953125 7.15234375 C-3.51339464 4.49606646 -2.16980999 2.16980999 0 0 Z " fill="#000000" transform="translate(870,1273)"/>
</svg>
